<?xml version="1.0" standalone="no"?>
<svg viewBox="0 0 200 200" xmlns="http://www.w3.org/2000/svg">
  <path fill="#A7F0BA" d="M30.1,-52.8C37.8,-47.7,42.1,-37.2,50.6,-27.6C59,-17.9,71.5,-8.9,71.9,0.2C72.3,9.4,60.4,18.7,52.6,29.4C44.8,40.1,40.9,52.2,32.8,60.2C24.7,68.3,12.4,72.3,-0.5,73.2C-13.4,74.2,-26.9,72,-41.2,67.5C-55.4,63,-70.5,56.2,-78.2,44.6C-86,33,-86.3,16.5,-79.2,4.1C-72.2,-8.3,-57.8,-16.7,-51,-29.9C-44.1,-43,-44.9,-61,-37.6,-66.4C-30.4,-71.8,-15.2,-64.7,-2,-61.2C11.2,-57.7,22.4,-57.9,30.1,-52.8Z" transform="translate(100 100)" />
</svg>
